<?xml version="1.0" encoding="utf-8"?>
<!-- Generator: Adobe Illustrator 19.2.1, SVG Export Plug-In . SVG Version: 6.00 Build 0)  -->
<svg version="1.1" id="RAW_ICONS_-_SQUARE__x2F__ROUNDED__x2F__CIRCLE"
	 xmlns="http://www.w3.org/2000/svg" xmlns:xlink="http://www.w3.org/1999/xlink" x="0px" y="0px" viewBox="0 0 33.3 33.5"
	 style="enable-background:new 0 0 33.3 33.5;" xml:space="preserve">
<metadata><?xpacket begin="﻿" id="W5M0MpCehiHzreSzNTczkc9d"?>
<x:xmpmeta xmlns:x="adobe:ns:meta/" x:xmptk="Adobe XMP Core 5.6-c111 79.158366, 2015/09/25-01:12:00        ">
   <rdf:RDF xmlns:rdf="http://www.w3.org/1999/02/22-rdf-syntax-ns#">
      <rdf:Description rdf:about=""/>
   </rdf:RDF>
</x:xmpmeta>
                                                                                                    
                                                                                                    
                                                                                                    
                                                                                                    
                                                                                                    
                                                                                                    
                                                                                                    
                                                                                                    
                                                                                                    
                                                                                                    
                                                                                                    
                                                                                                    
                                                                                                    
                                                                                                    
                                                                                                    
                                                                                                    
                                                                                                    
                                                                                                    
                                                                                                    
                                                                                                    
                           
<?xpacket end="w"?></metadata>
<style type="text/css">
	.st0{fill:#FFFFFF;}
</style>
<path class="st0" d="M16.6,0.5c-9,0-16.4,7.3-16.4,16.4s7.3,16.4,16.4,16.4c9,0,16.4-7.3,16.4-16.4S25.7,0.5,16.6,0.5z M25.3,15.5
	c0,1.9,0,3.8,0,5.7c0,2.2-1.5,4-3.7,4.4c-0.2,0-0.4,0.1-0.7,0.1c-2.9,0-5.7,0-8.6,0c-2.4,0-4.3-1.9-4.4-4.3c0-2,0-3.9,0-5.9
	c0,0,0-0.1,0-0.2c1.6,0,3.3,0,4.9,0c-0.5,2-0.1,3.6,1.6,4.8c1.4,1,3.2,0.9,4.5-0.1c1.6-1.2,2-2.8,1.5-4.7c1.6,0,3.2,0,4.9,0
	C25.3,15.4,25.3,15.5,25.3,15.5z M14.2,16.7c0-1.4,1.1-2.4,2.5-2.4c1.3,0,2.4,1.1,2.3,2.4c0,1.3-1.1,2.4-2.4,2.4
	C15.3,19.1,14.2,18,14.2,16.7z M25,13.8c-1.8,0-3.6,0-5.4,0c-0.2,0-0.3,0-0.4-0.2c-1.5-1.4-3.8-1.4-5.3,0c-0.1,0.1-0.2,0.2-0.4,0.2
	c-1.8,0-3.6,0-5.3,0c-0.1,0-0.2,0-0.2,0C7.8,12.1,8,10.5,9.4,9.3c0.1-0.1,0.1-0.1,0.2-0.2c0,0.7,0,1.2,0,1.8c0,0.6,0,1.2,0,1.8
	c0.3,0,0.6,0,1,0c0-0.1,0-0.2,0-0.3c0-1.2,0-2.4,0-3.7c0-0.2,0-0.3,0.2-0.3c0.2-0.1,0.5-0.1,0.7-0.2c0,1.5,0,3,0,4.5
	c0.3,0,0.6,0,1,0c0-1.5,0-3,0-4.5c0.1,0,0.2,0,0.3,0c2.7,0,5.4,0,8.2,0c2.4,0,4.3,1.9,4.4,4.3c0,0.4,0,0.8,0,1.3
	C25.2,13.8,25.1,13.8,25,13.8z"/>
</svg>
